<svg width="50" height="38" viewBox="0 0 50 38" fill="none" xmlns="http://www.w3.org/2000/svg">
<path d="M25 37.7656H0L0 33.1131H14.375C13.471 29.8993 11.6624 26.9678 9.13572 24.6207C6.60899 22.2737 3.45545 20.596 0 19.7604C1.6 19.3882 3.275 19.1555 5 19.1555C16.05 19.1555 25 27.4836 25 37.7656ZM50 19.7604C48.4 19.3882 46.725 19.1555 45 19.1555C37.675 19.1555 31.3 22.831 27.8 28.2977C29.2437 31.2729 29.9853 34.5013 29.975 37.7656H49.975V33.1131H35.6C36.513 29.8996 38.3276 26.9696 40.8579 24.6233C43.3882 22.2771 46.5433 20.5988 50 19.7604ZM34.1 16.8758C36.0366 12.0555 39.6315 7.96626 44.325 5.24446C33.6 5.57014 25 13.7353 25 23.8081V23.8546C27.375 20.9002 30.5 18.5042 34.1 16.8758ZM23.55 11.8278C22.5148 9.2974 20.9338 6.99101 18.9044 5.05065C16.875 3.1103 14.4402 1.57708 11.75 0.54541C15.35 4.87226 17.5 10.2692 17.5 16.1546C17.5 16.6432 17.425 17.1084 17.4 17.5737C18.475 18.132 19.475 18.7833 20.45 19.4812C20.9848 16.7785 22.0347 14.1866 23.55 11.8278Z" fill="#A9BC81"/>
</svg>
